<svg width="22" height="22" xmlns="http://www.w3.org/2000/svg" data-name="Layer 1">
 <title>browser settings</title>

 <g>
  <title>Layer 1</title>
  <path fill="#ffffff" id="svg_2" d="m20.08,8.76501l-1.53,-0.38a8,8 0 0 0 -0.37,-0.88l0.82,-1.36a1.21,1.21 0 0 0 -0.18,-1.48l-1.49,-1.49a1.21,1.21 0 0 0 -1.48,-0.18l-1.35,0.81a8,8 0 0 0 -0.88,-0.37l-0.38,-1.53a1.21,1.21 0 0 0 -1.18,-0.91l-2.12,0a1.21,1.21 0 0 0 -1.17,0.92l-0.38,1.53a8,8 0 0 0 -0.88,0.37l-1.36,-0.82a1.21,1.21 0 0 0 -1.48,0.18l-1.49,1.49a1.21,1.21 0 0 0 -0.18,1.48l0.81,1.35a8,8 0 0 0 -0.37,0.88l-1.53,0.38a1.21,1.21 0 0 0 -0.91,1.18l0,2.11a1.21,1.21 0 0 0 0.92,1.17l1.53,0.38a8,8 0 0 0 0.37,0.88l-0.82,1.37a1.21,1.21 0 0 0 0.18,1.48l1.49,1.49a1.21,1.21 0 0 0 1.48,0.18l1.35,-0.81a8,8 0 0 0 0.88,0.37l0.38,1.53a1.21,1.21 0 0 0 1.17,0.92l2.11,0a1.21,1.21 0 0 0 1.17,-0.92l0.38,-1.53a8,8 0 0 0 0.88,-0.37l1.35,0.81a1.21,1.21 0 0 0 1.48,-0.18l1.49,-1.49a1.21,1.21 0 0 0 0.21,-1.48l-0.81,-1.35a8,8 0 0 0 0.37,-0.88l1.53,-0.38a1.21,1.21 0 0 0 0.91,-1.18l0,-2.12a1.21,1.21 0 0 0 -0.92,-1.17zm-9.08,5.23a3,3 0 1 1 3,-3a3,3 0 0 1 -3,3z"/>
 </g>
</svg>