<svg width="155" height="123" xmlns="http://www.w3.org/2000/svg" xml:space="preserve" version="1.1">

 <g>
  <title>Layer 1</title>
  <path fill="#ffffff" id="svg_1" d="m135.7,60.1c0,-15.2 -6.2,-29 -16.2,-39l8,-8c12,12 19.5,28.6 19.5,46.9c0,18.3 -7.4,34.9 -19.5,46.9l-8,-8c10.1,-9.9 16.2,-23.6 16.2,-38.8l0,0zm-36.8,-18.3c4.7,4.7 7.6,11.2 7.6,18.3c0,7.1 -2.9,13.6 -7.6,18.3l-8,-8c2.7,-2.6 4.3,-6.3 4.3,-10.3c0,-4 -1.6,-7.7 -4.3,-10.3l8,-8l0,0zm14.3,-14.4c8.4,8.4 13.5,19.9 13.5,32.6c0,12.7 -5.2,24.3 -13.5,32.6l-8,-8c6.3,-6.3 10.2,-15 10.2,-24.7c0,-9.6 -3.9,-18.3 -10.2,-24.7l8,-7.8l0,0zm-100.9,8.5l14.1,0l0,48.3l-14.1,0l0,-48.3l0,0zm20,0l49.5,-29.4l0,107.2l-49.5,-29.5l0,-48.3l0,0z"/>
 </g>
</svg>